# xmcd CD database file
#
# Track frame offsets:
#	150
#	14532
#	30007
#	45670
#	54232
#	68127
#	85252
#	100482
#	133487
#	148752
#	162930
#	184285
#	194525
#	205297
#	223745
#	238515
#	250862
#	261587
#	277227
#	287562
#
# Disc length: 3976 seconds
#
# Revision: 4
# Processed by: cddbd v1.5.2PL0 Copyright (c) Steve Scherf et al.
# Submitted via: CDex 1.70beta2
#
DISCID=3b0f8614
DTITLE=Willie Nelson - Classic and Unreleased Collection Vol. 2
DYEAR=1995
DGENRE=Country
TTITLE0=So Much To Do
TTITLE1=(How Will I Know) I'm Falling In Love Again
TTITLE2=Bloody Mary Morning
TTITLE3=No Love Around
TTITLE4=After The Fire Is Gone
TTITLE5=Whiskey River
TTITLE6=Me And Paul
TTITLE7=Medley: Funny How Time Slips Away - Crazy - Night Life
TTITLE8=Stay All Night (Stay A Little Longer)
TTITLE9=Walkin'
TTITLE10=Bloody Mary Morning - Take Me Back To Tulsa
TTITLE11=The Party's Over
TTITLE12=Truck Drivin' Man
TTITLE13=She Thinks I Still Care
TTITLE14=Good Hearted Woman
TTITLE15=Sister's Coming Home
TTITLE16=Sugar Moon
TTITLE17=I'm A Fool To Care
TTITLE18=Rosetta
TTITLE19=I'll Sail My Ship Alone
EXTD=YEAR: 1995
EXTT0=
EXTT1=
EXTT2=
EXTT3=
EXTT4=
EXTT5=
EXTT6=
EXTT7=
EXTT8=
EXTT9=
EXTT10=
EXTT11=
EXTT12=
EXTT13=
EXTT14=
EXTT15=
EXTT16=
EXTT17=
EXTT18=
EXTT19=
PLAYORDER=
